# xmcd
#
# Track frame offsets: 
#        150
#        16108
#        33548
#        51260
#        71900
#        85818
#        100305
#        119743
#        137620
#        155898
#        174610
#        190633
#
# Disc length: 2790 seconds
#
# Revision: 2
# Processed by: cddbd v1.4PL0 Copyright (c) Steve Scherf et al.
# Submitted via: ExactAudioCopy v0.90b4
#
DISCID=a80ae40c
DTITLE=Anthony Smith - If That Ain't Country
DYEAR=2002
DGENRE=Country
TTITLE0=Who Invented The Wheel
TTITLE1=If That Ain't Country
TTITLE2=John J. Blanchard
TTITLE3=Impossible To Do
TTITLE4=Half A Man
TTITLE5=Metropolis
TTITLE6=Up To The Depth
TTITLE7=Airborn
TTITLE8=What Brothers Do
TTITLE9=Hell Of A Question
TTITLE10=Venus
TTITLE11=Infinity
EXTD=YEAR: 2002
EXTT0=
EXTT1=
EXTT2=
EXTT3=
EXTT4=
EXTT5=
EXTT6=
EXTT7=
EXTT8=
EXTT9=
EXTT10=
EXTT11=
PLAYORDER=
